<?xml version="1.0" encoding="utf-8"?><svg xml:space="preserve" viewBox="0 0 100 100" y="0" x="0" xmlns="http://www.w3.org/2000/svg" id="圖層_1" version="1.1" width="200px" height="200px" xmlns:xlink="http://www.w3.org/1999/xlink" style="width:100%;height:100%;background-size:initial;background-repeat-y:initial;background-repeat-x:initial;background-position-y:initial;background-position-x:initial;background-origin:initial;background-color:initial;background-clip:initial;background-attachment:initial;animation-play-state:paused" ><g class="ldl-scale" style="transform-origin:50% 50%;transform:rotate(0deg) scale(0.8, 0.8);animation-play-state:paused" ><g style="animation-play-state:paused" ><path fill="#333" d="M52.39 89.661h-4.78V48.837a2.39 2.39 0 1 1 4.78 0v40.824z" style="fill:rgb(51, 51, 51);animation-play-state:paused" ></path></g>
<path fill="#333" d="M47.61 46.448a2.39 2.39 0 0 0-1.156 3.176l18.67 40.038h5.273L50.786 47.603a2.39 2.39 0 0 0-3.176-1.155z" style="fill:rgb(51, 51, 51);animation-play-state:paused" ></path>
<path fill="#333" d="M52.39 46.448a2.39 2.39 0 0 0-3.176 1.156L29.603 89.661h5.273l18.67-40.038a2.39 2.39 0 0 0-1.156-3.175z" style="fill:rgb(51, 51, 51);animation-play-state:paused" ></path>
<path d="M12.398 15.386h75.204v50.86H12.398z" fill="#f5e6c8" style="fill:rgb(245, 230, 200);animation-play-state:paused" ></path>
<path d="M7.5 10.488v60.656h85V10.488h-85zm80.102 55.758H12.398v-50.86h75.204v50.86z" style="animation-play-state:paused" ></path>
<path fill="#e15b64" d="M68.977 40.937c0 10.048-7.598 18.298-17.728 18.953V21.984c10.13.654 17.728 8.905 17.728 18.953z" id="XMLID_557_" style="fill:rgb(225, 91, 100);animation-play-state:paused" ></path>
<path fill="#849b87" d="M48.716 59.889V41.668l-15.709-9.11c-1.278 2.601-1.984 5.473-1.984 8.379 0 10.047 7.844 18.298 17.693 18.952z" id="XMLID_556_" style="fill:rgb(132, 155, 135);animation-play-state:paused" ></path>
<path fill="#f8b26a" d="M48.716 38.743V21.985c-5.628.394-11.243 3.504-14.513 8.379l14.513 8.379z" id="XMLID_555_" style="fill:rgb(248, 178, 106);animation-play-state:paused" ></path>
<metadata xmlns:d="https://loading.io/stock/" style="animation-play-state:paused" ><d:name style="animation-play-state:paused" >canvas</d:name>
<d:tags style="animation-play-state:paused" >pie chart,presentation,slide,powerpoint,keynote,pitch,brief,canvas,business</d:tags>
<d:license style="animation-play-state:paused" >pro</d:license>
<d:slug style="animation-play-state:paused" >3hdacw</d:slug></metadata></g><!-- generated by https://loading.io/ --></svg>